<svg width="390" height="844" viewBox="0 0 390 844" fill="none" xmlns="http://www.w3.org/2000/svg">
<g clip-path="url(#clip0_3_773)">
<rect width="390" height="844" fill="url(#paint0_radial_3_773)"/>
<g filter="url(#filter0_f_3_773)">
<circle cx="138" cy="339" r="2" fill="#1B3AAB" fill-opacity="0.3"/>
</g>
<g filter="url(#filter1_f_3_773)">
<circle cx="376" cy="483" r="2" fill="#5336C9" fill-opacity="0.3"/>
</g>
<g filter="url(#filter2_f_3_773)">
<circle cx="318" cy="825" r="2" fill="#7840BF" fill-opacity="0.3"/>
</g>
<g filter="url(#filter3_f_3_773)">
<circle cx="228" cy="193" r="2" fill="#7840BF" fill-opacity="0.3"/>
</g>
<g filter="url(#filter4_f_3_773)">
<circle cx="79" cy="497" r="2" fill="#1B3AAB" fill-opacity="0.3"/>
</g>
<g filter="url(#filter5_f_3_773)">
<circle cx="306" cy="291" r="4" fill="#1B3AAB" fill-opacity="0.3"/>
</g>
<g filter="url(#filter6_f_3_773)">
<circle cx="169" cy="736" r="4" fill="#1B3AAB" fill-opacity="0.3"/>
</g>
<g filter="url(#filter7_f_3_773)">
<circle cx="56" cy="93" r="4" fill="#5336C9" fill-opacity="0.3"/>
</g>
<g filter="url(#filter8_f_3_773)">
<circle cx="328" cy="151" r="4" fill="#7840BF" fill-opacity="0.3"/>
</g>
<g filter="url(#filter9_f_3_773)">
<circle cx="199" cy="413" r="4" fill="#7840BF" fill-opacity="0.3"/>
</g>
<g filter="url(#filter10_f_3_773)">
<circle cx="336" cy="674" r="4" fill="#7840BF" fill-opacity="0.3"/>
</g>
<g filter="url(#filter11_f_3_773)">
<circle cx="138" cy="154" r="4" fill="#1B3AAB" fill-opacity="0.3"/>
</g>
<g filter="url(#filter12_f_3_773)">
<circle cx="64" cy="812" r="4" fill="#1B3AAB" fill-opacity="0.3"/>
</g>
<g filter="url(#filter13_f_3_773)">
<circle cx="389" cy="785" r="4" fill="#5336C9" fill-opacity="0.3"/>
</g>
<g filter="url(#filter14_f_3_773)">
<circle cx="280" cy="92" r="3" fill="#5336C9" fill-opacity="0.3"/>
</g>
<g filter="url(#filter15_f_3_773)">
<circle cx="222" cy="557" r="3" fill="#1B3AAB" fill-opacity="0.3"/>
</g>
<g filter="url(#filter16_f_3_773)">
<circle cx="71" cy="288" r="3" fill="#7840BF" fill-opacity="0.3"/>
</g>
<path opacity="0.3" d="M-25 618L134.153 492.975C138.181 489.81 142.952 487.73 148.012 486.932L324.056 459.17C330.438 458.164 335.941 454.137 338.83 448.358L439 248" stroke="#7840BF" stroke-width="2"/>
<path opacity="0.3" d="M-46 603L113.518 478.295C117.541 475.151 122.3 473.085 127.344 472.293L303.844 444.594C310.218 443.593 315.718 439.58 318.615 433.814L419 234" stroke="#5336C9" stroke-width="2"/>
<path opacity="0.3" d="M-67 587L92.5182 462.295C96.5409 459.151 101.3 457.085 106.344 456.293L282.844 428.594C289.218 427.593 294.718 423.58 297.615 417.814L398 218" stroke="#1B3AAB" stroke-width="2"/>
<path opacity="0.35" d="M347.288 23.9469C347.288 22.6258 348.359 21.5549 349.68 21.5549H368.08C369.401 21.5549 370.472 22.6258 370.472 23.9469V30.5709C370.472 31.8919 369.401 32.9629 368.08 32.9629H349.68C348.359 32.9629 347.288 31.8919 347.288 30.5709V23.9469Z" fill="black" stroke="black" stroke-width="1.104"/>
<path opacity="0.4" d="M372.128 25.0509V29.4669C373.016 29.0929 373.594 28.2228 373.594 27.2589C373.594 26.2949 373.016 25.4249 372.128 25.0509Z" fill="black"/>
<path d="M348.944 24.4253C348.944 23.7546 349.487 23.2109 350.158 23.2109H367.601C368.272 23.2109 368.816 23.7546 368.816 24.4253V30.0925C368.816 30.7632 368.272 31.3069 367.601 31.3069H350.158C349.487 31.3069 348.944 30.7632 348.944 30.0925V24.4253Z" fill="black"/>
<path fill-rule="evenodd" clip-rule="evenodd" d="M332.749 23.5142C335.195 23.5143 337.548 24.4543 339.321 26.1399C339.454 26.27 339.668 26.2684 339.799 26.1362L341.075 24.8482C341.142 24.7812 341.179 24.6904 341.178 24.5959C341.178 24.5014 341.14 24.411 341.072 24.3448C336.419 19.8851 329.078 19.8851 324.424 24.3448C324.357 24.411 324.318 24.5013 324.318 24.5958C324.317 24.6903 324.354 24.7811 324.421 24.8482L325.697 26.1362C325.829 26.2686 326.042 26.2702 326.176 26.1399C327.949 24.4542 330.302 23.5142 332.749 23.5142ZM332.749 27.7046C334.093 27.7045 335.389 28.2041 336.385 29.1063C336.52 29.2344 336.732 29.2316 336.864 29.1001L338.138 27.8121C338.205 27.7445 338.243 27.6529 338.242 27.5576C338.241 27.4624 338.202 27.3715 338.133 27.3053C335.099 24.4831 330.401 24.4831 327.367 27.3053C327.298 27.3715 327.259 27.4624 327.258 27.5577C327.257 27.653 327.295 27.7446 327.362 27.8121L328.636 29.1001C328.768 29.2316 328.98 29.2344 329.115 29.1063C330.11 28.2047 331.405 27.7052 332.749 27.7046ZM335.302 30.524C335.304 30.6195 335.267 30.7116 335.198 30.7785L332.993 33.0038C332.929 33.0692 332.841 33.106 332.749 33.106C332.657 33.106 332.569 33.0692 332.504 33.0038L330.298 30.7785C330.23 30.7116 330.193 30.6195 330.195 30.524C330.197 30.4284 330.238 30.338 330.309 30.274C331.717 29.0829 333.78 29.0829 335.188 30.274C335.259 30.3381 335.3 30.4285 335.302 30.524Z" fill="black"/>
<path fill-rule="evenodd" clip-rule="evenodd" d="M317.664 21.3709H316.56C315.95 21.3709 315.456 21.8652 315.456 22.4749V32.0429C315.456 32.6526 315.95 33.1469 316.56 33.1469H317.664C318.274 33.1469 318.768 32.6526 318.768 32.0429V22.4749C318.768 21.8652 318.274 21.3709 317.664 21.3709ZM311.408 23.9469H312.512C313.122 23.9469 313.616 24.4412 313.616 25.0509V32.0429C313.616 32.6526 313.122 33.1469 312.512 33.1469H311.408C310.798 33.1469 310.304 32.6526 310.304 32.0429V25.0509C310.304 24.4412 310.798 23.9469 311.408 23.9469ZM307.36 26.5229H306.256C305.646 26.5229 305.152 27.0172 305.152 27.6269V32.0429C305.152 32.6526 305.646 33.1469 306.256 33.1469H307.36C307.97 33.1469 308.464 32.6526 308.464 32.0429V27.6269C308.464 27.0172 307.97 26.5229 307.36 26.5229ZM302.208 28.7309H301.104C300.494 28.7309 300 29.2252 300 29.8349V32.0429C300 32.6526 300.494 33.1469 301.104 33.1469H302.208C302.818 33.1469 303.312 32.6526 303.312 32.0429V29.8349C303.312 29.2252 302.818 28.7309 302.208 28.7309Z" fill="black"/>
<path d="M38.1035 25.8809C38.1035 24.7969 38.4697 23.9082 39.2021 23.2148C39.9395 22.5166 40.8818 22.1675 42.0293 22.1675C42.8008 22.1675 43.4844 22.3457 44.0801 22.7021C44.6758 23.0586 45.1519 23.5762 45.5083 24.2549C46.0063 25.1387 46.2554 26.252 46.2554 27.5947C46.2554 29.3721 45.877 30.7612 45.1201 31.7622C44.3633 32.7583 43.3135 33.2563 41.9707 33.2563C41.0039 33.2563 40.1812 32.9951 39.5024 32.4727C38.8237 31.9453 38.4062 31.2471 38.25 30.3779H40.1323C40.2544 30.7783 40.479 31.0957 40.8062 31.3301C41.1382 31.5596 41.5312 31.6743 41.9854 31.6743C42.7568 31.6743 43.3599 31.335 43.7944 30.6562C44.229 29.9727 44.4463 29.0254 44.4463 27.8145H44.3804H44.3438H44.3218C44.0728 28.3174 43.709 28.708 43.2305 28.9863C42.752 29.2598 42.2026 29.3965 41.5825 29.3965C40.5767 29.3965 39.7441 29.0645 39.085 28.4004C38.4307 27.7363 38.1035 26.8965 38.1035 25.8809ZM39.9565 25.8223C39.9565 26.4277 40.1519 26.9258 40.5425 27.3164C40.9331 27.7021 41.4312 27.895 42.0366 27.895C42.6421 27.895 43.1426 27.7021 43.5381 27.3164C43.9336 26.9307 44.1313 26.4424 44.1313 25.8516C44.1313 25.2559 43.9312 24.7554 43.5308 24.3501C43.1304 23.9448 42.6348 23.7422 42.0439 23.7422C41.4531 23.7422 40.9575 23.9424 40.5571 24.3428C40.1567 24.7383 39.9565 25.2314 39.9565 25.8223ZM47.9746 31.9966C47.9746 31.6597 48.0845 31.3838 48.3042 31.1689C48.5239 30.9492 48.8047 30.8394 49.1465 30.8394C49.4932 30.8394 49.7739 30.9492 49.9888 31.1689C50.2085 31.3838 50.3184 31.6597 50.3184 31.9966C50.3184 32.3286 50.2085 32.6045 49.9888 32.8242C49.7739 33.0439 49.4932 33.1538 49.1465 33.1538C48.8047 33.1538 48.5239 33.0439 48.3042 32.8242C48.0845 32.6045 47.9746 32.3286 47.9746 31.9966ZM47.9746 26.5107C47.9746 26.1738 48.0845 25.8979 48.3042 25.6831C48.5239 25.4634 48.8047 25.3535 49.1465 25.3535C49.4932 25.3535 49.7739 25.4634 49.9888 25.6831C50.2085 25.8979 50.3184 26.1738 50.3184 26.5107C50.3184 26.8428 50.2085 27.1187 49.9888 27.3384C49.7739 27.5532 49.4932 27.6606 49.1465 27.6606C48.8047 27.6606 48.5239 27.5532 48.3042 27.3384C48.0845 27.1187 47.9746 26.8428 47.9746 26.5107ZM51.8105 31.0298V29.3452C52.6699 27.7632 54.1055 25.4585 56.1172 22.4312H58.7832V29.4331H60.2114V31.0298H58.7832V33H56.9741V31.0298H51.8105ZM53.561 29.4771H57.0034V23.9692H56.9009C55.7583 25.6587 54.645 27.458 53.561 29.3672V29.4771ZM61.2861 26.1812V24.3647L64.0474 22.4312H65.9297V33H64.04V24.3354H63.9155L61.2861 26.1812Z" fill="black"/>
<path d="M106 -3H282.999L283 -0.473684H280.839C277.088 -0.473684 274.047 2.56708 274.047 6.31808C274.047 21.0541 262.101 33 247.365 33H144.128C129.392 33 117.446 21.054 117.447 6.31808C117.447 2.5671 114.406 -0.473684 110.655 -0.473684H106.001L106 -3Z" fill="black"/>
<line x1="123.5" y1="833.5" x2="266.5" y2="833.5" stroke="black" stroke-width="5" stroke-linecap="round"/>
</g>
<defs>
<filter id="filter0_f_3_773" x="135" y="336" width="6" height="6" filterUnits="userSpaceOnUse" color-interpolation-filters="sRGB">
<feFlood flood-opacity="0" result="BackgroundImageFix"/>
<feBlend mode="normal" in="SourceGraphic" in2="BackgroundImageFix" result="shape"/>
<feGaussianBlur stdDeviation="0.5" result="effect1_foregroundBlur_3_773"/>
</filter>
<filter id="filter1_f_3_773" x="373" y="480" width="6" height="6" filterUnits="userSpaceOnUse" color-interpolation-filters="sRGB">
<feFlood flood-opacity="0" result="BackgroundImageFix"/>
<feBlend mode="normal" in="SourceGraphic" in2="BackgroundImageFix" result="shape"/>
<feGaussianBlur stdDeviation="0.5" result="effect1_foregroundBlur_3_773"/>
</filter>
<filter id="filter2_f_3_773" x="315" y="822" width="6" height="6" filterUnits="userSpaceOnUse" color-interpolation-filters="sRGB">
<feFlood flood-opacity="0" result="BackgroundImageFix"/>
<feBlend mode="normal" in="SourceGraphic" in2="BackgroundImageFix" result="shape"/>
<feGaussianBlur stdDeviation="0.5" result="effect1_foregroundBlur_3_773"/>
</filter>
<filter id="filter3_f_3_773" x="225" y="190" width="6" height="6" filterUnits="userSpaceOnUse" color-interpolation-filters="sRGB">
<feFlood flood-opacity="0" result="BackgroundImageFix"/>
<feBlend mode="normal" in="SourceGraphic" in2="BackgroundImageFix" result="shape"/>
<feGaussianBlur stdDeviation="0.5" result="effect1_foregroundBlur_3_773"/>
</filter>
<filter id="filter4_f_3_773" x="76" y="494" width="6" height="6" filterUnits="userSpaceOnUse" color-interpolation-filters="sRGB">
<feFlood flood-opacity="0" result="BackgroundImageFix"/>
<feBlend mode="normal" in="SourceGraphic" in2="BackgroundImageFix" result="shape"/>
<feGaussianBlur stdDeviation="0.5" result="effect1_foregroundBlur_3_773"/>
</filter>
<filter id="filter5_f_3_773" x="301" y="286" width="10" height="10" filterUnits="userSpaceOnUse" color-interpolation-filters="sRGB">
<feFlood flood-opacity="0" result="BackgroundImageFix"/>
<feBlend mode="normal" in="SourceGraphic" in2="BackgroundImageFix" result="shape"/>
<feGaussianBlur stdDeviation="0.5" result="effect1_foregroundBlur_3_773"/>
</filter>
<filter id="filter6_f_3_773" x="164" y="731" width="10" height="10" filterUnits="userSpaceOnUse" color-interpolation-filters="sRGB">
<feFlood flood-opacity="0" result="BackgroundImageFix"/>
<feBlend mode="normal" in="SourceGraphic" in2="BackgroundImageFix" result="shape"/>
<feGaussianBlur stdDeviation="0.5" result="effect1_foregroundBlur_3_773"/>
</filter>
<filter id="filter7_f_3_773" x="51" y="88" width="10" height="10" filterUnits="userSpaceOnUse" color-interpolation-filters="sRGB">
<feFlood flood-opacity="0" result="BackgroundImageFix"/>
<feBlend mode="normal" in="SourceGraphic" in2="BackgroundImageFix" result="shape"/>
<feGaussianBlur stdDeviation="0.5" result="effect1_foregroundBlur_3_773"/>
</filter>
<filter id="filter8_f_3_773" x="323" y="146" width="10" height="10" filterUnits="userSpaceOnUse" color-interpolation-filters="sRGB">
<feFlood flood-opacity="0" result="BackgroundImageFix"/>
<feBlend mode="normal" in="SourceGraphic" in2="BackgroundImageFix" result="shape"/>
<feGaussianBlur stdDeviation="0.5" result="effect1_foregroundBlur_3_773"/>
</filter>
<filter id="filter9_f_3_773" x="194" y="408" width="10" height="10" filterUnits="userSpaceOnUse" color-interpolation-filters="sRGB">
<feFlood flood-opacity="0" result="BackgroundImageFix"/>
<feBlend mode="normal" in="SourceGraphic" in2="BackgroundImageFix" result="shape"/>
<feGaussianBlur stdDeviation="0.5" result="effect1_foregroundBlur_3_773"/>
</filter>
<filter id="filter10_f_3_773" x="331" y="669" width="10" height="10" filterUnits="userSpaceOnUse" color-interpolation-filters="sRGB">
<feFlood flood-opacity="0" result="BackgroundImageFix"/>
<feBlend mode="normal" in="SourceGraphic" in2="BackgroundImageFix" result="shape"/>
<feGaussianBlur stdDeviation="0.5" result="effect1_foregroundBlur_3_773"/>
</filter>
<filter id="filter11_f_3_773" x="133" y="149" width="10" height="10" filterUnits="userSpaceOnUse" color-interpolation-filters="sRGB">
<feFlood flood-opacity="0" result="BackgroundImageFix"/>
<feBlend mode="normal" in="SourceGraphic" in2="BackgroundImageFix" result="shape"/>
<feGaussianBlur stdDeviation="0.5" result="effect1_foregroundBlur_3_773"/>
</filter>
<filter id="filter12_f_3_773" x="59" y="807" width="10" height="10" filterUnits="userSpaceOnUse" color-interpolation-filters="sRGB">
<feFlood flood-opacity="0" result="BackgroundImageFix"/>
<feBlend mode="normal" in="SourceGraphic" in2="BackgroundImageFix" result="shape"/>
<feGaussianBlur stdDeviation="0.5" result="effect1_foregroundBlur_3_773"/>
</filter>
<filter id="filter13_f_3_773" x="384" y="780" width="10" height="10" filterUnits="userSpaceOnUse" color-interpolation-filters="sRGB">
<feFlood flood-opacity="0" result="BackgroundImageFix"/>
<feBlend mode="normal" in="SourceGraphic" in2="BackgroundImageFix" result="shape"/>
<feGaussianBlur stdDeviation="0.5" result="effect1_foregroundBlur_3_773"/>
</filter>
<filter id="filter14_f_3_773" x="276" y="88" width="8" height="8" filterUnits="userSpaceOnUse" color-interpolation-filters="sRGB">
<feFlood flood-opacity="0" result="BackgroundImageFix"/>
<feBlend mode="normal" in="SourceGraphic" in2="BackgroundImageFix" result="shape"/>
<feGaussianBlur stdDeviation="0.5" result="effect1_foregroundBlur_3_773"/>
</filter>
<filter id="filter15_f_3_773" x="218" y="553" width="8" height="8" filterUnits="userSpaceOnUse" color-interpolation-filters="sRGB">
<feFlood flood-opacity="0" result="BackgroundImageFix"/>
<feBlend mode="normal" in="SourceGraphic" in2="BackgroundImageFix" result="shape"/>
<feGaussianBlur stdDeviation="0.5" result="effect1_foregroundBlur_3_773"/>
</filter>
<filter id="filter16_f_3_773" x="67" y="284" width="8" height="8" filterUnits="userSpaceOnUse" color-interpolation-filters="sRGB">
<feFlood flood-opacity="0" result="BackgroundImageFix"/>
<feBlend mode="normal" in="SourceGraphic" in2="BackgroundImageFix" result="shape"/>
<feGaussianBlur stdDeviation="0.5" result="effect1_foregroundBlur_3_773"/>
</filter>
<radialGradient id="paint0_radial_3_773" cx="0" cy="0" r="1" gradientUnits="userSpaceOnUse" gradientTransform="translate(390 844) rotate(-114.801) scale(929.751 87.1163)">
<stop stop-color="#F4EEFA"/>
<stop offset="0.49767" stop-color="white"/>
</radialGradient>
<clipPath id="clip0_3_773">
<rect width="390" height="844" fill="white"/>
</clipPath>
</defs>
</svg>
